<svg width="22" height="23" viewBox="0 0 22 23" fill="none" xmlns="http://www.w3.org/2000/svg">
<path d="M19.9171 14.1154H19.8906C19.5422 14.1154 19.208 14.2538 18.9617 14.5001C18.7153 14.7465 18.5769 15.0806 18.5769 15.429V18.7596C18.5769 18.9356 18.507 19.1043 18.3826 19.2287C18.2582 19.3532 18.0894 19.4231 17.9135 19.4231H3.31731C3.14135 19.4231 2.97259 19.3532 2.84817 19.2287C2.72375 19.1043 2.65385 18.9356 2.65385 18.7596V4.16344C2.65385 3.98748 2.72375 3.81872 2.84817 3.6943C2.97259 3.56988 3.14135 3.49998 3.31731 3.49998H9.30173C9.65013 3.49998 9.98427 3.36157 10.2306 3.11522C10.477 2.86886 10.6154 2.53473 10.6154 2.18632V2.15978C10.6154 1.81138 10.477 1.47725 10.2306 1.23089C9.98427 0.984533 9.65013 0.84613 9.30173 0.84613H1.31365C0.965251 0.84613 0.631118 0.984533 0.38476 1.23089C0.138402 1.47725 0 1.81138 0 2.15978L0 20.7632C0 21.1117 0.138402 21.4458 0.38476 21.6921C0.631118 21.9385 0.965251 22.0769 1.31365 22.0769H19.9171C20.2655 22.0769 20.5997 21.9385 20.846 21.6921C21.0924 21.4458 21.2308 21.1117 21.2308 20.7632L21.2175 20.75H21.2308V15.429C21.2308 15.0806 21.0924 14.7465 20.846 14.5001C20.5997 14.2538 20.2655 14.1154 19.9171 14.1154Z" fill="#140A0A"/>
<path d="M16.5494 4.63584C12.7816 4.90454 9.88165 6.14123 7.91581 8.32535C6.38694 10.0461 5.48283 12.2321 5.34954 14.53C5.32752 14.7271 5.34731 14.9265 5.4076 15.1154C5.46789 15.3042 5.56734 15.4783 5.69945 15.6261C5.83155 15.7739 5.99335 15.8922 6.17428 15.9733C6.35521 16.0543 6.55119 16.0963 6.74945 16.0965L6.81579 16.0898C7.11776 16.0568 7.39845 15.9185 7.60858 15.6991C7.81872 15.4798 7.94488 15.1934 7.96491 14.8903C8.06627 13.1165 8.74924 11.4255 9.90819 10.0789C11.3724 8.46534 13.6189 7.53782 16.5866 7.29897V7.48076H16.5494L16.5209 7.65857L14.9916 9.20244C14.7446 9.45286 14.6061 9.79048 14.6061 10.1422C14.6061 10.494 14.7446 10.8316 14.9916 11.082C15.1132 11.2054 15.2581 11.3034 15.4179 11.3702C15.5777 11.4371 15.7492 11.4715 15.9225 11.4715C16.0957 11.4715 16.2672 11.4371 16.427 11.3702C16.5868 11.3034 16.7317 11.2054 16.8533 11.082L20.8447 7.05217C21.0919 6.80172 21.2305 6.46396 21.2305 6.11204C21.2305 5.76012 21.0919 5.42236 20.8447 5.17192L16.8639 1.2356C16.7423 1.11233 16.5975 1.01445 16.4377 0.947645C16.278 0.880838 16.1066 0.846436 15.9334 0.846436C15.7603 0.846436 15.5888 0.880838 15.4291 0.947645C15.2694 1.01445 15.1245 1.11233 15.0029 1.2356C14.7555 1.48596 14.6168 1.82375 14.6168 2.17572C14.6168 2.5277 14.7555 2.86549 15.0029 3.11585L16.5494 4.63584Z" fill="#140A0A"/>
</svg>
