<svg width="16" height="17" viewBox="0 0 16 17" fill="none" xmlns="http://www.w3.org/2000/svg">
<path d="M3.6199 7.24726L1.79057 9.04141C1.04036 9.77719 0.618896 10.7751 0.618896 11.8157C0.618896 12.8562 1.04036 13.8542 1.79057 14.59C2.54078 15.3257 3.55828 15.7391 4.61924 15.7391C5.68019 15.7391 6.69769 15.3257 7.4479 14.59L9.88524 12.1982C10.3376 11.7544 10.6749 11.2107 10.8687 10.6127C11.0625 10.0146 11.1072 9.37971 10.999 8.76122C10.8909 8.14273 10.633 7.55871 10.2471 7.05817C9.86124 6.55764 9.35854 6.1552 8.78124 5.88464L7.9999 6.65095C7.92056 6.72887 7.85157 6.8163 7.79457 6.91118C8.2406 7.03694 8.64545 7.27469 8.96909 7.60093C9.29273 7.92718 9.52395 8.33061 9.6399 8.77135C9.75585 9.21209 9.75251 9.67488 9.63021 10.114C9.50791 10.5531 9.27089 10.9532 8.94257 11.275L6.50657 13.6654C6.00619 14.1562 5.32754 14.4319 4.6199 14.4319C3.91226 14.4319 3.23361 14.1562 2.73324 13.6654C2.23286 13.1747 1.95175 12.5091 1.95175 11.815C1.95175 11.121 2.23286 10.4554 2.73324 9.96464L3.79057 8.92895C3.64097 8.38075 3.58333 7.81362 3.6199 7.24726Z" fill="black"/>
<path d="M6.11473 4.80187C5.66234 5.24563 5.32508 5.78934 5.13128 6.38738C4.93747 6.98543 4.89277 7.62034 5.00092 8.23883C5.10907 8.85732 5.36692 9.44135 5.75282 9.94188C6.13873 10.4424 6.64143 10.8448 7.21873 11.1154L8.25206 10.1006C7.8 9.98171 7.3878 9.74818 7.05691 9.42352C6.72602 9.09885 6.48808 8.69449 6.36701 8.25107C6.24594 7.80764 6.246 7.34077 6.36719 6.89738C6.48838 6.45398 6.72642 6.04968 7.0574 5.7251L9.4934 3.33464C9.99377 2.84389 10.6724 2.56818 11.3801 2.56818C12.0877 2.56818 12.7664 2.84389 13.2667 3.33464C13.7671 3.82539 14.0482 4.49099 14.0482 5.18502C14.0482 5.87905 13.7671 6.54466 13.2667 7.03541L12.2094 8.0711C12.3587 8.62033 12.4161 9.18918 12.3801 9.7541L14.2094 7.95995C14.9596 7.22416 15.3811 6.22623 15.3811 5.18568C15.3811 4.14512 14.9596 3.14719 14.2094 2.41141C13.4592 1.67563 12.4417 1.26227 11.3807 1.26227C10.3198 1.26227 9.30227 1.67563 8.55206 2.41141L6.11473 4.80187Z" fill="black"/>
</svg>
