<?xml version="1.0"?>
<svg width="512" height="512" xmlns="http://www.w3.org/2000/svg" xmlns:svg="http://www.w3.org/2000/svg">

 <g class="layer">
  <title>Layer 1</title>
  <path d="m263.01,113.55c11.25,0 22.25,-3.33 31.75,-9.57c9.25,-6.24 16.5,-15.1 20.75,-25.48c4.25,-10.37 5.5,-21.78 3.25,-32.8c-2.25,-11 -7.5,-21.13 -15.5,-29.06c-8,-7.94 -18,-13.35 -29,-15.54c-11,-2.2 -22.5,-1.06 -32.75,3.23c-10.5,4.3 -19.25,11.58 -25.5,20.91c-6.25,9.34 -9.75,20.32 -9.75,31.55c0,15.05 6,29.5 16.75,40.15c10.5,10.65 25,16.62 40,16.62zm0,283.89c-11,0 -22,3.33 -31.5,9.57c-9.25,6.24 -16.5,15.1 -20.75,25.47c-4.5,10.38 -5.5,21.8 -3.25,32.82c2,11 7.5,21.13 15.5,29.06c8,7.94 18,13.35 29,15.54c11,2.2 22.5,1.06 32.75,-3.23c10.5,-4.3 19.25,-11.58 25.5,-20.91c6.25,-9.34 9.75,-20.32 9.75,-31.55c0,-15.05 -6,-29.49 -16.75,-40.15c-10.75,-10.65 -25,-16.62 -40.25,-16.62zm0,-198.73c-11,0 -22,3.34 -31.5,9.57c-9.25,6.24 -16.5,15.12 -20.75,25.48c-4.5,10.38 -5.5,21.8 -3.25,32.8c2,11.02 7.5,21.13 15.5,29.08c8,7.94 18,13.35 29,15.54c11,2.18 22.5,1.06 32.75,-3.23c10.5,-4.3 19.25,-11.58 25.5,-20.92c6.25,-9.33 9.75,-20.31 9.75,-31.54c0,-15.06 -6,-29.5 -16.75,-40.15c-10.75,-10.65 -25,-16.63 -40.25,-16.63z" fill="black" id="svg_1"/>
 </g>
</svg>